<svg version="1.1" xmlns="http://www.w3.org/2000/svg" viewBox="0 0 187.73763728831545 210.21990115857434" width="187.73763728831545" height="210.21990115857434"><!-- svg-source:excalidraw --><metadata></metadata><defs><style class="style-fonts">
      </style></defs><rect x="0" y="0" width="187.73763728831545" height="210.21990115857434" fill="#ffffff"></rect><g stroke-linecap="round" transform="translate(10.680759770634722 13.831840692992387) rotate(0 83.52843875884037 92.99225201723237)"><path d="M0 0 C58.07 -2.59, 116.08 -0.43, 167.06 0 M0 0 C41.4 -2.33, 84.83 -1.31, 167.06 0 M167.06 0 C169.9 38.21, 166.98 76.58, 167.06 185.98 M167.06 0 C168.36 69.21, 168.35 136.72, 167.06 185.98 M167.06 185.98 C117.93 187.64, 70.63 186.16, 0 185.98 M167.06 185.98 C113.01 185.07, 57.75 185.61, 0 185.98 M0 185.98 C0.09 147.11, -1.02 110.93, 0 0 M0 185.98 C-0.17 127.77, -0.31 68.79, 0 0" stroke="#1e1e1e" stroke-width="1" fill="none"></path></g><g stroke-linecap="round" transform="translate(10 12.95803901133047) rotate(0 30.573365248529626 41.826062180280104)"><path d="M0 0 C21.69 0.98, 42.26 -0.09, 61.15 0 M0 0 C24.24 0.67, 46.04 1.27, 61.15 0 M61.15 0 C60.38 34.44, 63.15 66.85, 61.15 83.65 M61.15 0 C60.54 30.63, 60.81 62.41, 61.15 83.65 M61.15 83.65 C43.37 83.9, 22.53 85.7, 0 83.65 M61.15 83.65 C45.93 84.33, 30.83 83.72, 0 83.65 M0 83.65 C-1.04 62.39, 0.24 38.12, 0 0 M0 83.65 C-0.19 50.23, 0.26 18.03, 0 0" stroke="#1e1e1e" stroke-width="1" fill="none"></path></g><g stroke-linecap="round" transform="translate(11.698520291585737 96.61016337189068) rotate(0 46.28467794569042 51.80486889334183)"><path d="M0 0 C18.93 -0.82, 41.49 -1.53, 92.57 0 M0 0 C18.32 0.61, 39.51 0.66, 92.57 0 M92.57 0 C93.21 37.3, 93.24 70.44, 92.57 103.61 M92.57 0 C92.16 38.76, 92.42 76.45, 92.57 103.61 M92.57 103.61 C59.18 105.18, 23.58 104.23, 0 103.61 M92.57 103.61 C63.05 104.2, 35.14 104.25, 0 103.61 M0 103.61 C0.8 75.65, 2.45 47.38, 0 0 M0 103.61 C0.46 70.58, 0.87 36.25, 0 0" stroke="#1e1e1e" stroke-width="1" fill="none"></path></g><g stroke-linecap="round" transform="translate(76.72387586799323 93.08559947750875) rotate(0 11.233041298995886 3.230828642930348)"><path d="M0 0 C5.14 0.79, 12.22 -0.92, 22.47 0 M0 0 C8.55 -0.44, 17.15 0.26, 22.47 0 M22.47 0 C22.71 2.4, 22.39 4.99, 22.47 6.46 M22.47 0 C22.58 2.42, 22.46 4.6, 22.47 6.46 M22.47 6.46 C13.96 5.97, 5.91 5.56, 0 6.46 M22.47 6.46 C15.54 6.22, 9.29 6.54, 0 6.46 M0 6.46 C0.05 4.43, -0.11 2.67, 0 0 M0 6.46 C0.14 4.19, 0.05 1.56, 0 0" stroke="#1e1e1e" stroke-width="1" fill="none"></path></g><g stroke-linecap="round" transform="translate(43.560879587806085 92.9986269884421) rotate(0 11.233041298995886 3.230828642930348)"><path d="M0 0 C7.01 -0.5, 12.76 0.48, 22.47 0 M0 0 C7.5 -0.04, 14.28 -0.31, 22.47 0 M22.47 0 C22.46 2.37, 22.22 5, 22.47 6.46 M22.47 0 C22.5 1.68, 22.46 3.36, 22.47 6.46 M22.47 6.46 C17.35 7.33, 12.08 7.11, 0 6.46 M22.47 6.46 C14.88 6.05, 6.33 6.83, 0 6.46 M0 6.46 C-0.03 4.48, -0.16 2.88, 0 0 M0 6.46 C-0.1 4.49, -0.09 2.65, 0 0" stroke="#1e1e1e" stroke-width="1" fill="none"></path></g><g stroke-linecap="round" transform="translate(75.44542633187484 10) rotate(0 11.233041298995886 3.230828642930348)"><path d="M0 0 C8.91 -0.88, 16.88 -0.21, 22.47 0 M0 0 C6.39 -0.09, 12.93 -0.35, 22.47 0 M22.47 0 C22.64 2.67, 22.43 5.26, 22.47 6.46 M22.47 0 C22.4 1.33, 22.53 2.65, 22.47 6.46 M22.47 6.46 C14.24 6.05, 6.09 5.58, 0 6.46 M22.47 6.46 C16.61 6.23, 10.35 6.43, 0 6.46 M0 6.46 C-0.11 4.39, -0.01 2.56, 0 0 M0 6.46 C0.03 4.88, 0.03 2.99, 0 0" stroke="#1e1e1e" stroke-width="1" fill="none"></path></g><g stroke-linecap="round" transform="translate(107.14804175476002 168.87639471351568) rotate(0 16.21193037627745 6.852465416776965)"><path d="M0 0 C10.44 0.45, 22.29 -0.6, 32.42 0 M0 0 C11.89 0.37, 23.36 0.42, 32.42 0 M32.42 0 C32.66 2.98, 32.16 6.74, 32.42 13.7 M32.42 0 C32.11 5.11, 32.6 9.51, 32.42 13.7 M32.42 13.7 C20.86 13.51, 10.26 13.54, 0 13.7 M32.42 13.7 C25.49 13.69, 18.14 13.41, 0 13.7 M0 13.7 C-0.64 8.35, 0.14 2.47, 0 0 M0 13.7 C-0.22 10.31, -0.31 6.7, 0 0" stroke="#1e1e1e" stroke-width="1" fill="none"></path></g><g stroke-linecap="round" transform="translate(100.29557633798504 16.61795581878826) rotate(0 11.704145738963689 6.852465416776965)"><path d="M0 0 C9.08 -0.16, 16.06 0.97, 23.41 0 M0 0 C5.11 -0.07, 11.12 -0.39, 23.41 0 M23.41 0 C23.13 4.83, 23.38 10.39, 23.41 13.7 M23.41 0 C23.73 3.68, 23.53 7.5, 23.41 13.7 M23.41 13.7 C15.46 13.84, 6.11 13.05, 0 13.7 M23.41 13.7 C15.92 13.49, 9.08 14.14, 0 13.7 M0 13.7 C0.05 9.16, -0.26 4.85, 0 0 M0 13.7 C0.2 9.21, -0.14 5.26, 0 0" stroke="#1e1e1e" stroke-width="1" fill="none"></path></g><g stroke-linecap="round" transform="translate(125.83189431390565 16.61795581878829) rotate(0 11.704145738963689 6.852465416776965)"><path d="M0 0 C6.35 -0.09, 12.24 -0.12, 23.41 0 M0 0 C7.38 0.25, 15.08 -0.38, 23.41 0 M23.41 0 C23.09 4.81, 23.87 9.47, 23.41 13.7 M23.41 0 C23.47 5.24, 23.15 10.4, 23.41 13.7 M23.41 13.7 C15.02 13.87, 8.26 13.84, 0 13.7 M23.41 13.7 C16.25 14.11, 9.55 13.78, 0 13.7 M0 13.7 C0.1 7.68, -0.36 2.95, 0 0 M0 13.7 C0.18 8.66, -0.14 4.38, 0 0" stroke="#1e1e1e" stroke-width="1" fill="none"></path></g><g stroke-linecap="round" transform="translate(150.7602047189721 16.28368921309189) rotate(0 11.704145738963689 6.852465416776965)"><path d="M0 0 C7.76 0.61, 17.19 -0.72, 23.41 0 M0 0 C5.82 0.07, 11.57 -0.23, 23.41 0 M23.41 0 C23.63 3.67, 23.5 6.42, 23.41 13.7 M23.41 0 C23.28 4.09, 23.28 8.46, 23.41 13.7 M23.41 13.7 C18.86 14.73, 12.62 13.17, 0 13.7 M23.41 13.7 C16.59 13.72, 10.26 13.88, 0 13.7 M0 13.7 C-0.6 9.47, -0.45 3.41, 0 0 M0 13.7 C0.24 9.51, -0.27 4.89, 0 0" stroke="#1e1e1e" stroke-width="1" fill="none"></path></g><g stroke-linecap="round" transform="translate(132.54748924809883 98.17900760871912) rotate(0 15.046811795928079 6.852465416776965)"><path d="M0 0 C9.27 0.21, 18.63 0.5, 30.09 0 M0 0 C7.53 0.5, 15.33 0.29, 30.09 0 M30.09 0 C29.7 5.21, 30.49 10.45, 30.09 13.7 M30.09 0 C30.25 3.07, 30.11 6.69, 30.09 13.7 M30.09 13.7 C22.09 13.03, 15.25 14.01, 0 13.7 M30.09 13.7 C22.59 13.11, 15.15 13.15, 0 13.7 M0 13.7 C-0.59 9.6, 0.26 4.7, 0 0 M0 13.7 C0.17 9.26, -0.39 4.41, 0 0" stroke="#1e1e1e" stroke-width="1" fill="none"></path></g><g stroke-linecap="round" transform="translate(155.27761843545704 106.53567275113005) rotate(270 15.046811795928079 6.852465416776965)"><path d="M0 0 C8.14 -0.22, 16.05 -0.51, 30.09 0 M0 0 C11.68 -0.49, 24.36 0.1, 30.09 0 M30.09 0 C29.65 3.58, 30.73 5.42, 30.09 13.7 M30.09 0 C30.26 3.13, 29.96 6.1, 30.09 13.7 M30.09 13.7 C18.39 13.76, 6.55 12.71, 0 13.7 M30.09 13.7 C23.23 13.99, 16.64 14.22, 0 13.7 M0 13.7 C0.31 9.39, 0.13 6.02, 0 0 M0 13.7 C-0.05 9.24, -0.13 5.51, 0 0" stroke="#1e1e1e" stroke-width="1" fill="none"></path></g><g stroke-linecap="round" transform="translate(145.9181534759582 61.07541437641453) rotate(0 15.046811795928079 6.852465416776965)"><path d="M0 0 C9.23 0.3, 19.5 -0.14, 30.09 0 M0 0 C10.37 0.42, 19.97 0.3, 30.09 0 M30.09 0 C30.31 4.89, 29.93 9.26, 30.09 13.7 M30.09 0 C30.13 2.9, 29.82 6.12, 30.09 13.7 M30.09 13.7 C23.01 14.6, 14.85 14.19, 0 13.7 M30.09 13.7 C22.26 13.56, 14.51 13.9, 0 13.7 M0 13.7 C0.19 9.87, 0.45 4.87, 0 0 M0 13.7 C-0.15 9.64, 0.02 5.68, 0 0" stroke="#1e1e1e" stroke-width="1" fill="none"></path></g></svg>